# Blender v2.90.1 OBJ File: 'lowpoly几何多边形雪山农庄.blend'
# www.blender.org
mtllib Bush2.mtl
o Bush.002_Cube.036
v 0.187838 0.691839 1.939209
v 0.195424 0.754546 1.943150
v 0.194982 0.689968 1.851125
v 0.189289 0.751614 1.849792
v 0.273453 0.692508 1.941734
v 0.274835 0.751992 1.939856
v 0.283067 0.690926 1.858269
v 0.280899 0.753065 1.856343
v 0.180540 0.722136 1.953608
v 0.175843 0.760732 1.896923
v 0.186202 0.723550 1.847394
v 0.185019 0.686206 1.893269
v 0.237187 0.756501 1.839043
v 0.285690 0.721281 1.839428
v 0.240381 0.684312 1.847607
v 0.289474 0.763295 1.894120
v 0.286087 0.722207 1.956480
v 0.293310 0.684992 1.893518
v 0.238107 0.755269 1.946353
v 0.235541 0.683707 1.954125
v 0.238919 0.782720 1.898001
v 0.238432 0.674990 1.894204
v 0.238072 0.716259 1.976739
v 0.319066 0.722612 1.891470
v 0.231824 0.721418 1.821360
v 0.157483 0.718346 1.891612
vn -0.7874 -0.4680 -0.4013
vn 0.2758 -0.5172 -0.8102
vn 0.7664 -0.5106 0.3897
vn -0.3530 -0.4945 0.7943
vn 0.1842 -0.9627 -0.1981
vn -0.2492 0.9102 -0.3307
vn -0.2096 0.9074 0.3643
vn 0.2750 0.8723 0.4044
vn 0.2682 0.8917 -0.3646
vn 0.2206 -0.9567 0.1900
vn -0.2061 -0.9697 0.1313
vn -0.1702 -0.9713 -0.1660
vn 0.3782 -0.5424 0.7502
vn 0.2299 0.5744 0.7856
vn -0.1925 0.5172 0.8340
vn 0.7861 -0.4563 -0.4169
vn 0.7700 0.4791 -0.4213
vn 0.7640 0.5189 0.3834
vn -0.3115 -0.4347 -0.8450
vn -0.3543 0.3261 -0.8764
vn 0.3211 0.4330 -0.8422
vn -0.8253 -0.5100 0.2424
vn -0.8492 0.4011 0.3435
vn -0.8592 0.3064 -0.4097
usemtl Material.002
s off
f 26//1 11//1 3//1 12//1
f 25//2 14//2 7//2 15//2
f 24//3 17//3 5//3 18//3
f 23//4 9//4 1//4 20//4
f 22//5 15//5 7//5 18//5
f 21//6 13//6 4//6 10//6
f 19//7 21//7 10//7 2//7
f 6//8 16//8 21//8 19//8
f 16//9 8//9 13//9 21//9
f 20//10 22//10 18//10 5//10
f 1//11 12//11 22//11 20//11
f 12//12 3//12 15//12 22//12
f 17//13 23//13 20//13 5//13
f 6//14 19//14 23//14 17//14
f 19//15 2//15 9//15 23//15
f 14//16 24//16 18//16 7//16
f 8//17 16//17 24//17 14//17
f 16//18 6//18 17//18 24//18
f 11//19 25//19 15//19 3//19
f 4//20 13//20 25//20 11//20
f 13//21 8//21 14//21 25//21
f 9//22 26//22 12//22 1//22
f 2//23 10//23 26//23 9//23
f 10//24 4//24 11//24 26//24
