# Blender v2.90.1 OBJ File: 'lowpoly几何多边形雪山农庄.blend'
# www.blender.org
mtllib house3.mtl
o House.006_Cube.073
v 0.553980 0.763167 -1.357152
v 0.553980 0.952870 -1.337597
v 0.685242 0.806515 -1.777680
v 0.685242 0.996218 -1.758125
v 0.736111 0.757369 -1.300900
v 0.736111 0.947071 -1.281345
v 0.867373 0.800717 -1.721428
v 0.867373 0.990420 -1.701873
v 0.776307 1.075756 -1.721501
v 0.776307 0.803616 -1.749554
v 0.645045 1.032408 -1.300973
v 0.645045 0.760268 -1.329026
v 0.776307 1.075756 -1.721501
v 0.867373 0.990420 -1.701873
v 0.736111 0.947071 -1.281345
v 0.645045 1.032408 -1.300973
v 0.553980 0.970629 -1.335766
v 0.685242 1.013977 -1.756294
v 0.645045 1.050167 -1.299143
v 0.776307 1.093515 -1.719671
v 0.776307 1.093515 -1.719671
v 0.867373 1.008179 -1.700042
v 0.736111 0.964830 -1.279515
v 0.645045 1.050167 -1.299143
v 0.690268 0.997878 -1.774229
v 0.781334 1.077416 -1.737605
v 0.781334 1.077416 -1.737605
v 0.872399 0.992080 -1.717977
v 0.690268 1.015637 -1.772398
v 0.781334 1.095175 -1.735775
v 0.781334 1.095175 -1.735775
v 0.872399 1.009839 -1.716146
v 0.641291 1.031168 -1.288945
v 0.550226 0.951630 -1.325569
v 0.732356 0.945831 -1.269317
v 0.641291 1.031168 -1.288945
v 0.641291 1.048927 -1.287115
v 0.550226 0.969389 -1.323738
v 0.732356 0.963591 -1.267487
v 0.641291 1.048927 -1.287115
v 0.553980 0.952870 -1.337597
v 0.685242 0.996218 -1.758125
v 0.553980 0.970629 -1.335766
v 0.685242 1.013977 -1.756294
v 0.690268 1.015637 -1.772398
v 0.690268 0.997878 -1.774229
v 0.550226 0.951630 -1.325569
v 0.550226 0.969389 -1.323738
v 0.543247 0.941118 -1.342159
v 0.674509 0.984466 -1.762686
v 0.543247 0.958877 -1.340328
v 0.674509 1.002225 -1.760856
v 0.679536 1.003886 -1.776960
v 0.679536 0.986126 -1.778790
v 0.539493 0.939878 -1.330131
v 0.539493 0.957637 -1.328300
v 0.882933 0.974713 -1.698635
v 0.751671 0.931364 -1.278107
v 0.882933 0.992472 -1.696804
v 0.751671 0.949123 -1.276277
v 0.887960 0.976373 -1.714739
v 0.887960 0.994132 -1.712908
v 0.747917 0.947884 -1.264249
v 0.747917 0.930124 -1.266079
v 0.798742 0.788991 -1.545712
v 0.798742 0.892321 -1.535061
v 0.811609 0.793240 -1.586934
v 0.811609 0.896570 -1.576283
v 0.821489 0.788266 -1.538687
v 0.821489 0.891597 -1.528035
v 0.834356 0.792516 -1.579909
v 0.834356 0.895846 -1.569257
v 0.763130 0.897226 -1.401168
v 0.763130 0.830609 -1.408035
v 0.743272 0.890668 -1.337548
v 0.743272 0.824051 -1.344415
v 0.754439 0.823696 -1.340966
v 0.754439 0.890312 -1.334099
v 0.774297 0.830254 -1.404586
v 0.774297 0.896870 -1.397720
v 0.854816 0.927504 -1.694906
v 0.854816 0.860888 -1.701773
v 0.834958 0.920946 -1.631286
v 0.834958 0.854330 -1.638153
v 0.846125 0.853974 -1.634704
v 0.846125 0.920591 -1.627837
v 0.865983 0.860532 -1.698324
v 0.865983 0.927149 -1.691457
v 0.648732 0.924302 -1.663842
v 0.648732 0.857686 -1.670709
v 0.628874 0.917744 -1.600222
v 0.628874 0.851128 -1.607089
v 0.640041 0.850772 -1.603640
v 0.640041 0.917389 -1.596773
v 0.659899 0.857330 -1.667260
v 0.659899 0.923947 -1.660393
v 0.592996 0.905896 -1.485278
v 0.592996 0.839279 -1.492145
v 0.573138 0.899338 -1.421658
v 0.573138 0.832721 -1.428525
v 0.584305 0.832366 -1.425076
v 0.584305 0.898982 -1.418209
v 0.604163 0.838924 -1.488696
v 0.604163 0.905540 -1.481829
v 0.604406 0.950535 -1.428976
v 0.604406 1.116524 -1.411865
v 0.690952 0.979116 -1.706246
v 0.690952 1.145105 -1.689136
v 0.745899 0.946030 -1.385275
v 0.745899 1.112019 -1.368165
v 0.832445 0.974611 -1.662545
v 0.832445 1.140600 -1.645435
v 0.788269 1.102623 -1.518948
v 0.788269 1.036006 -1.525815
v 0.768411 1.096065 -1.455328
v 0.768411 1.029448 -1.462195
v 0.779578 1.029093 -1.458746
v 0.779578 1.095709 -1.451879
v 0.799436 1.035651 -1.522366
v 0.799436 1.102267 -1.515499
v 0.647679 1.130814 -1.550501
v 0.761699 1.218013 -1.659537
v 0.789172 1.126310 -1.506800
v 0.675153 1.189432 -1.382267
v 0.764444 1.218920 -1.668335
v 0.647679 1.142780 -1.549267
v 0.690952 1.157070 -1.687902
v 0.761699 1.229978 -1.658304
v 0.832445 1.152565 -1.644201
v 0.789172 1.138275 -1.505566
v 0.745899 1.123984 -1.366931
v 0.675153 1.201397 -1.381034
v 0.604406 1.128489 -1.410632
v 0.718426 1.215688 -1.519669
v 0.835191 1.141507 -1.654232
v 0.693698 1.146012 -1.697933
v 0.764444 1.230885 -1.667101
v 0.835191 1.153472 -1.652998
v 0.693698 1.157977 -1.696699
v 0.671863 1.188346 -1.371730
v 0.601117 1.115438 -1.401328
v 0.742610 1.110933 -1.357627
v 0.601117 1.127403 -1.400095
v 0.671863 1.200311 -1.370497
v 0.742610 1.122898 -1.356394
v 0.636814 1.128181 -1.554163
v 0.680087 1.142471 -1.692798
v 0.800037 1.122984 -1.503751
v 0.756764 1.108694 -1.365116
v 0.593541 1.113890 -1.415528
v 0.843310 1.137275 -1.642386
v 0.593541 1.125855 -1.414295
v 0.800037 1.134949 -1.502518
v 0.843310 1.149240 -1.641153
v 0.636814 1.140146 -1.552930
v 0.680087 1.154436 -1.691565
v 0.756764 1.120659 -1.363883
v 0.590252 1.124769 -1.403758
v 0.846056 1.138182 -1.651183
v 0.846056 1.150147 -1.649950
v 0.682832 1.143378 -1.701596
v 0.682832 1.155343 -1.700362
v 0.590252 1.112804 -1.404991
v 0.753475 1.119573 -1.353345
v 0.753475 1.107607 -1.354579
vn 0.0000 0.0000 1.0000
vn -0.9550 0.0304 -0.2950
vn -0.6265 0.7707 -0.1161
vn 0.6265 0.7308 0.2709
vn 0.6536 0.7045 0.2766
vn 0.9550 -0.0304 0.2950
vn 0.6265 0.7309 0.2709
vn 0.6265 -0.7707 0.1161
vn 0.2965 0.0979 -0.9500
vn -0.6265 -0.7309 -0.2709
vn -0.2965 -0.0979 0.9500
vn -0.6265 -0.7308 -0.2709
vn -0.6536 -0.7045 -0.2766
vn -0.7013 0.6975 -0.1470
vn 0.7013 -0.6976 0.1470
vn -0.7013 0.6976 -0.1470
vn 0.2432 0.9542 0.1743
vn 0.2432 -0.9697 -0.0241
vn -0.6820 -0.6747 -0.2824
vn -0.2432 -0.9542 -0.1743
vn -0.6820 0.7181 -0.1388
vn 0.6820 0.6747 0.2824
vn -0.6819 0.7181 -0.1388
vn -0.2432 0.9697 0.0240
vn 0.6819 -0.7181 0.1388
vn -0.2432 0.9697 0.0241
vn 0.6820 -0.7181 0.1388
vn 0.2432 0.9542 0.1742
vn 0.0000 -0.9947 -0.1025
vn 0.0000 0.9947 0.1025
usemtl Roof
s off
f 18//1 29//1 45//1 44//1
f 8//1 9//1 13//1 14//1
f 13//2 16//2 24//2 21//2
f 6//1 8//1 14//1 15//1
f 9//1 11//1 16//1 13//1
f 11//1 6//1 15//1 16//1
f 19//3 20//3 18//3 17//3
f 23//4 22//4 21//4 24//4
f 21//4 22//4 32//4 31//4
f 23//5 39//5 63//5 60//5
f 11//6 19//6 37//6 33//6
f 23//7 24//7 40//7 39//7
f 9//8 4//8 25//8 26//8
f 11//6 9//6 20//6 19//6
f 26//9 25//9 29//9 30//9
f 28//9 27//9 31//9 32//9
f 28//9 32//9 62//9 61//9
f 18//3 20//3 30//3 29//3
f 29//1 25//1 46//1 45//1
f 13//2 21//2 31//2 27//2
f 14//10 13//10 27//10 28//10
f 20//6 9//6 26//6 30//6
f 34//11 33//11 37//11 38//11
f 36//11 35//11 39//11 40//11
f 2//8 11//8 33//8 34//8
f 16//12 15//12 35//12 36//12
f 35//13 15//13 58//13 64//13
f 19//3 17//3 38//3 37//3
f 38//1 17//1 43//1 48//1
f 24//2 16//2 36//2 40//2
f 45//9 46//9 54//9 53//9
f 44//14 45//14 53//14 52//14
f 41//15 47//15 55//15 49//15
f 4//1 2//1 41//1 42//1
f 34//1 38//1 48//1 47//1
f 25//1 4//1 42//1 46//1
f 2//1 34//1 47//1 41//1
f 17//1 18//1 44//1 43//1
f 50//2 49//2 51//2 52//2
f 50//2 52//2 53//2 54//2
f 51//2 49//2 55//2 56//2
f 42//15 41//15 49//15 50//15
f 48//16 43//16 51//16 56//16
f 47//11 48//11 56//11 55//11
f 46//15 42//15 50//15 54//15
f 43//14 44//14 52//14 51//14
f 58//6 57//6 59//6 60//6
f 59//6 57//6 61//6 62//6
f 58//6 60//6 63//6 64//6
f 14//13 28//13 61//13 57//13
f 15//13 14//13 57//13 58//13
f 32//5 22//5 59//5 62//5
f 39//11 35//11 64//11 63//11
f 22//5 23//5 60//5 59//5
f 75//2 73//2 74//2 76//2
f 83//2 81//2 82//2 84//2
f 130//17 131//17 157//17 153//17
f 115//2 113//2 114//2 116//2
f 106//18 141//18 163//18 150//18
f 112//19 122//19 125//19 135//19
f 123//20 112//20 151//20 148//20
f 134//21 128//21 127//21 126//21
f 132//21 134//21 126//21 133//21
f 131//22 130//22 134//22 132//22
f 130//22 129//22 128//22 134//22
f 124//19 110//19 142//19 140//19
f 127//23 128//23 137//23 139//23
f 131//17 145//17 164//17 157//17
f 132//23 133//23 143//23 144//23
f 135//9 125//9 137//9 138//9
f 125//9 136//9 139//9 137//9
f 128//22 129//22 138//22 137//22
f 127//24 139//24 162//24 156//24
f 141//11 143//11 158//11 163//11
f 122//25 108//25 136//25 125//25
f 140//11 142//11 145//11 144//11
f 141//11 140//11 144//11 143//11
f 126//26 127//26 156//26 155//26
f 106//27 124//27 140//27 141//27
f 131//22 132//22 144//22 145//22
f 139//9 136//9 161//9 162//9
f 149//6 148//6 153//6 157//6
f 146//2 150//2 152//2 155//2
f 148//6 151//6 154//6 153//6
f 147//2 146//2 155//2 156//2
f 154//6 151//6 159//6 160//6
f 147//2 156//2 162//2 161//2
f 149//6 157//6 164//6 165//6
f 152//2 150//2 163//2 158//2
f 112//20 135//20 159//20 151//20
f 145//11 142//11 165//11 164//11
f 138//28 129//28 154//28 160//28
f 133//26 126//26 155//26 152//26
f 135//9 138//9 160//9 159//9
f 110//20 123//20 148//20 149//20
f 136//18 108//18 147//18 161//18
f 108//18 121//18 146//18 147//18
f 129//17 130//17 153//17 154//17
f 142//20 110//20 149//20 165//20
f 143//24 133//24 152//24 158//24
f 121//18 106//18 150//18 146//18
usemtl Building
f 2//2 4//2 3//2 1//2
f 9//9 8//9 7//9 10//9
f 8//6 6//6 5//6 7//6
f 11//11 2//11 1//11 12//11
f 12//29 10//29 7//29 5//29
f 1//29 3//29 10//29 12//29
f 6//11 11//11 12//11 5//11
f 4//9 9//9 10//9 3//9
f 106//2 121//2 108//2 107//2 105//2
f 108//9 122//9 112//9 111//9 107//9
f 112//6 123//6 110//6 109//6 111//6
f 110//11 124//11 106//11 105//11 109//11
f 105//29 107//29 111//29 109//29
usemtl door
f 66//2 68//2 67//2 65//2
f 68//9 72//9 71//9 67//9
f 72//6 70//6 69//6 71//6
f 70//11 66//11 65//11 69//11
f 65//29 67//29 71//29 69//29
f 70//30 72//30 68//30 66//30
usemtl Window
f 73//9 80//9 79//9 74//9
f 80//6 78//6 77//6 79//6
f 78//11 75//11 76//11 77//11
f 76//29 74//29 79//29 77//29
f 78//30 80//30 73//30 75//30
f 81//9 88//9 87//9 82//9
f 88//6 86//6 85//6 87//6
f 86//11 83//11 84//11 85//11
f 84//29 82//29 87//29 85//29
f 86//30 88//30 81//30 83//30
f 91//2 89//2 90//2 92//2
f 89//9 96//9 95//9 90//9
f 96//6 94//6 93//6 95//6
f 94//11 91//11 92//11 93//11
f 92//29 90//29 95//29 93//29
f 94//30 96//30 89//30 91//30
f 99//2 97//2 98//2 100//2
f 97//9 104//9 103//9 98//9
f 104//6 102//6 101//6 103//6
f 102//11 99//11 100//11 101//11
f 100//29 98//29 103//29 101//29
f 102//30 104//30 97//30 99//30
f 113//9 120//9 119//9 114//9
f 120//6 118//6 117//6 119//6
f 118//11 115//11 116//11 117//11
f 116//29 114//29 119//29 117//29
f 118//30 120//30 113//30 115//30
