# Blender v2.90.1 OBJ File: 'lowpoly几何多边形雪山农庄.blend'
# www.blender.org
mtllib house4.mtl
o House.010_Cube.077
v 1.144793 0.785939 -1.584986
v 1.144793 0.943921 -1.584986
v 1.249305 0.785939 -1.624531
v 1.249305 0.943921 -1.624531
v 1.182468 0.785939 -1.485417
v 1.182468 0.943921 -1.485417
v 1.286980 0.785939 -1.524962
v 1.286980 0.943921 -1.524962
v 1.268142 1.012573 -1.574747
v 1.268142 0.785939 -1.574747
v 1.163631 1.012573 -1.535202
v 1.163631 0.785939 -1.535202
v 1.268142 1.012573 -1.574747
v 1.286980 0.943921 -1.524962
v 1.182468 0.943921 -1.485417
v 1.163631 1.012573 -1.535202
v 1.144793 0.958710 -1.584986
v 1.249305 0.958710 -1.624531
v 1.163631 1.027362 -1.535202
v 1.268142 1.027362 -1.574747
v 1.268142 1.027362 -1.574747
v 1.286980 0.958710 -1.524962
v 1.182468 0.958710 -1.485417
v 1.163631 1.027362 -1.535202
v 1.253307 0.943921 -1.626046
v 1.272144 1.012573 -1.576261
v 1.272144 1.012573 -1.576261
v 1.290982 0.943921 -1.526476
v 1.253307 0.958710 -1.626046
v 1.272144 1.027362 -1.576261
v 1.272144 1.027362 -1.576261
v 1.290982 0.958710 -1.526476
v 1.160642 1.012573 -1.534071
v 1.141804 0.943921 -1.583855
v 1.179479 0.943921 -1.484286
v 1.160642 1.012573 -1.534071
v 1.160642 1.027362 -1.534071
v 1.141804 0.958710 -1.583855
v 1.179479 0.958710 -1.484286
v 1.160642 1.027362 -1.534071
v 1.144793 0.943921 -1.584986
v 1.249305 0.943921 -1.624531
v 1.144793 0.958710 -1.584986
v 1.249305 0.958710 -1.624531
v 1.253307 0.958710 -1.626046
v 1.253307 0.943921 -1.626046
v 1.141804 0.943921 -1.583855
v 1.141804 0.958710 -1.583855
v 1.142573 0.933849 -1.590854
v 1.247084 0.933849 -1.630399
v 1.142573 0.948639 -1.590854
v 1.247084 0.948639 -1.630399
v 1.251087 0.948639 -1.631913
v 1.251087 0.933849 -1.631913
v 1.139584 0.933849 -1.589723
v 1.139584 0.948639 -1.589723
v 1.290199 0.931253 -1.516455
v 1.185687 0.931253 -1.476910
v 1.290199 0.946042 -1.516455
v 1.185687 0.946042 -1.476910
v 1.294201 0.931253 -1.517969
v 1.294201 0.946042 -1.517969
v 1.182698 0.946042 -1.475779
v 1.182698 0.931253 -1.475779
v 1.153087 0.791202 -1.546925
v 1.153087 0.877254 -1.546925
v 1.163332 0.791202 -1.550801
v 1.163332 0.877254 -1.550801
v 1.168467 0.791202 -1.506278
v 1.168467 0.877254 -1.506278
v 1.178712 0.791202 -1.510154
v 1.178712 0.877254 -1.510154
v 1.208497 0.892668 -1.500055
v 1.208497 0.837191 -1.500055
v 1.192686 0.892668 -1.494072
v 1.192686 0.837191 -1.494072
v 1.279937 0.892668 -1.527086
v 1.279937 0.837191 -1.527086
v 1.236133 0.892668 -1.510512
v 1.236133 0.837191 -1.510512
v 1.238443 0.837191 -1.504407
v 1.238443 0.892668 -1.504407
v 1.282247 0.837191 -1.520981
v 1.282247 0.892668 -1.520981
v 1.209476 0.837191 -1.605389
v 1.209476 0.892668 -1.605389
v 1.225287 0.837191 -1.611372
v 1.225287 0.892668 -1.611372
v 1.235274 0.962055 -1.559298
v 1.235274 1.035584 -1.559298
v 1.247817 0.962055 -1.526148
v 1.247817 1.035584 -1.526148
v 1.202124 0.962055 -1.546755
v 1.202124 1.035584 -1.546755
v 1.214667 0.962055 -1.513604
v 1.214667 1.035584 -1.513604
v 1.237781 1.039295 -1.564823
v 1.253575 1.039295 -1.523081
v 1.211834 1.039295 -1.507287
v 1.196040 1.039295 -1.549029
v 1.239364 1.055273 -1.568672
v 1.255158 1.055273 -1.526930
v 1.213416 1.055273 -1.511136
v 1.197622 1.055273 -1.552878
vn 0.0000 0.0000 1.0000
vn -0.3539 0.0000 -0.9353
vn -0.2797 0.6127 -0.7391
vn 0.2797 0.6127 0.7391
vn 0.2797 0.6128 0.7391
vn 0.2874 0.5832 0.7597
vn 0.3539 0.0000 0.9353
vn 0.2797 -0.6127 0.7391
vn 0.9353 0.0000 -0.3539
vn -0.2797 -0.6127 -0.7391
vn -0.9353 0.0000 0.3539
vn -0.2874 -0.5832 -0.7597
vn -0.3004 0.5287 -0.7939
vn 0.3004 -0.5287 0.7939
vn -0.2875 -0.5832 -0.7597
vn 0.2875 0.5832 0.7597
vn 0.0000 -1.0000 -0.0000
vn 0.2135 -0.7976 0.5642
vn -0.2318 -0.7556 -0.6127
vn 0.6110 -0.7571 -0.2312
vn -0.5657 -0.7963 0.2141
vn -0.9208 0.1751 0.3484
vn 0.0000 1.0000 0.0000
vn 0.9208 -0.1751 -0.3484
vn -0.3477 -0.1869 -0.9188
vn 0.3477 0.1869 0.9188
usemtl Roof.001
s off
f 18//1 29//1 45//1 44//1
f 8//1 9//1 13//1 14//1
f 13//2 16//2 24//2 21//2
f 6//1 8//1 14//1 15//1
f 9//1 11//1 16//1 13//1
f 11//1 6//1 15//1 16//1
f 19//3 20//3 18//3 17//3
f 23//4 22//4 21//4 24//4
f 21//5 22//5 32//5 31//5
f 23//6 39//6 63//6 60//6
f 11//7 19//7 37//7 33//7
f 23//5 24//5 40//5 39//5
f 9//8 4//8 25//8 26//8
f 11//7 9//7 20//7 19//7
f 26//9 25//9 29//9 30//9
f 28//9 27//9 31//9 32//9
f 28//9 32//9 62//9 61//9
f 18//3 20//3 30//3 29//3
f 29//1 25//1 46//1 45//1
f 13//2 21//2 31//2 27//2
f 14//10 13//10 27//10 28//10
f 20//7 9//7 26//7 30//7
f 34//11 33//11 37//11 38//11
f 36//11 35//11 39//11 40//11
f 2//8 11//8 33//8 34//8
f 16//10 15//10 35//10 36//10
f 35//12 15//12 58//12 64//12
f 19//3 17//3 38//3 37//3
f 38//1 17//1 43//1 48//1
f 24//2 16//2 36//2 40//2
f 45//9 46//9 54//9 53//9
f 44//13 45//13 53//13 52//13
f 41//14 47//14 55//14 49//14
f 4//1 2//1 41//1 42//1
f 34//1 38//1 48//1 47//1
f 25//1 4//1 42//1 46//1
f 2//1 34//1 47//1 41//1
f 17//1 18//1 44//1 43//1
f 50//2 49//2 51//2 52//2
f 50//2 52//2 53//2 54//2
f 51//2 49//2 55//2 56//2
f 42//14 41//14 49//14 50//14
f 48//13 43//13 51//13 56//13
f 47//11 48//11 56//11 55//11
f 46//14 42//14 50//14 54//14
f 43//13 44//13 52//13 51//13
f 58//7 57//7 59//7 60//7
f 59//7 57//7 61//7 62//7
f 58//7 60//7 63//7 64//7
f 14//15 28//15 61//15 57//15
f 15//15 14//15 57//15 58//15
f 32//16 22//16 59//16 62//16
f 39//11 35//11 64//11 63//11
f 22//16 23//16 60//16 59//16
f 75//2 73//2 74//2 76//2
f 79//2 77//2 78//2 80//2
usemtl Building.001
f 2//2 4//2 3//2 1//2
f 9//9 8//9 7//9 10//9
f 8//7 6//7 5//7 7//7
f 11//11 2//11 1//11 12//11
f 12//17 10//17 7//17 5//17
f 1//17 3//17 10//17 12//17
f 6//11 11//11 12//11 5//11
f 4//9 9//9 10//9 3//9
f 90//9 92//9 91//9 89//9
f 92//7 96//7 95//7 91//7
f 96//11 94//11 93//11 95//11
f 94//2 90//2 89//2 93//2
f 89//17 91//17 95//17 93//17
f 96//18 92//18 98//18 99//18
f 90//19 94//19 100//19 97//19
f 92//20 90//20 97//20 98//20
f 94//21 96//21 99//21 100//21
f 100//22 99//22 103//22 104//22
f 104//23 103//23 102//23 101//23
f 98//24 97//24 101//24 102//24
f 97//25 100//25 104//25 101//25
f 99//26 98//26 102//26 103//26
usemtl door.001
f 66//2 68//2 67//2 65//2
f 68//9 72//9 71//9 67//9
f 72//7 70//7 69//7 71//7
f 70//11 66//11 65//11 69//11
f 65//17 67//17 71//17 69//17
f 70//23 72//23 68//23 66//23
usemtl Window.001
f 77//9 84//9 83//9 78//9
f 84//7 82//7 81//7 83//7
f 82//11 79//11 80//11 81//11
f 80//17 78//17 83//17 81//17
f 82//23 84//23 77//23 79//23
f 88//7 86//7 85//7 87//7
