# Blender v2.90.1 OBJ File: 'lowpoly几何多边形雪山农庄.blend'
# www.blender.org
mtllib house.mtl
o House.002_Cube.003
v 1.566787 0.754986 1.309783
v 1.566787 0.941945 1.309783
v 1.136919 0.754986 1.250292
v 1.136919 0.941945 1.250292
v 1.592417 0.754986 1.124589
v 1.592417 0.941945 1.124589
v 1.162549 0.754986 1.065097
v 1.162549 0.941945 1.065097
v 1.149734 1.023190 1.157694
v 1.149734 0.754986 1.157694
v 1.579602 1.023190 1.217186
v 1.579602 0.754986 1.217186
v 1.149734 1.023190 1.157694
v 1.162549 0.941945 1.065097
v 1.592417 0.941945 1.124589
v 1.579602 1.023190 1.217186
v 1.566787 0.959448 1.309783
v 1.136919 0.959448 1.250292
v 1.579602 1.040693 1.217186
v 1.149734 1.040693 1.157694
v 1.149734 1.040693 1.157694
v 1.162549 0.959448 1.065097
v 1.592417 0.959448 1.124589
v 1.579602 1.040693 1.217186
v 1.120458 0.941945 1.248013
v 1.133273 1.023190 1.155416
v 1.133273 1.023190 1.155416
v 1.146088 0.941945 1.062819
v 1.120458 0.959448 1.248013
v 1.133273 1.040693 1.155416
v 1.133273 1.040693 1.155416
v 1.146088 0.959448 1.062819
v 1.591897 1.023190 1.218887
v 1.579082 0.941945 1.311485
v 1.604712 0.941945 1.126290
v 1.591897 1.023190 1.218887
v 1.591897 1.040693 1.218887
v 1.579082 0.959448 1.311485
v 1.604712 0.959448 1.126290
v 1.591897 1.040693 1.218887
v 1.566787 0.941945 1.309783
v 1.136919 0.941945 1.250292
v 1.566787 0.959448 1.309783
v 1.136919 0.959448 1.250292
v 1.120458 0.959448 1.248013
v 1.120458 0.941945 1.248013
v 1.579082 0.941945 1.311485
v 1.579082 0.959448 1.311485
v 1.565276 0.930027 1.320697
v 1.135409 0.930027 1.261205
v 1.565276 0.947529 1.320697
v 1.135409 0.947529 1.261205
v 1.118947 0.947529 1.258927
v 1.118947 0.930027 1.258927
v 1.577571 0.930027 1.322398
v 1.577571 0.947529 1.322398
v 1.164739 0.926954 1.049275
v 1.594606 0.926954 1.108766
v 1.164739 0.944456 1.049275
v 1.594606 0.944456 1.108766
v 1.148277 0.926954 1.046997
v 1.148277 0.944456 1.046997
v 1.606901 0.944456 1.110468
v 1.606901 0.926954 1.110468
v 1.343734 0.761214 1.103392
v 1.343734 0.863050 1.103392
v 1.301596 0.761214 1.097560
v 1.301596 0.863050 1.097560
v 1.346935 0.761214 1.080263
v 1.346935 0.863050 1.080263
v 1.304797 0.761214 1.074431
v 1.304797 0.863050 1.074431
v 1.477758 0.881292 1.116662
v 1.477758 0.815639 1.116662
v 1.542791 0.881292 1.125662
v 1.542791 0.815639 1.125662
v 1.544363 0.815639 1.114307
v 1.544363 0.881292 1.114307
v 1.479329 0.815639 1.105307
v 1.479329 0.881292 1.105307
v 1.177496 0.881292 1.075107
v 1.177496 0.815639 1.075107
v 1.242530 0.881292 1.084107
v 1.242530 0.815639 1.084107
v 1.244101 0.815639 1.072753
v 1.244101 0.881292 1.072753
v 1.179068 0.815639 1.063752
v 1.179068 0.881292 1.063752
v 1.240595 0.881292 1.269461
v 1.240595 0.815639 1.269461
v 1.305628 0.881292 1.278461
v 1.305628 0.815639 1.278461
v 1.307199 0.815639 1.267106
v 1.307199 0.881292 1.267106
v 1.242166 0.815639 1.258106
v 1.242166 0.881292 1.258106
v 1.423124 0.881292 1.294722
v 1.423124 0.815639 1.294722
v 1.488158 0.881292 1.303722
v 1.488158 0.815639 1.303722
v 1.489729 0.815639 1.292367
v 1.489729 0.881292 1.292367
v 1.424696 0.815639 1.283367
v 1.424696 0.881292 1.283367
vn 0.0000 0.0000 1.0000
vn -0.1371 0.0000 0.9906
vn -0.0899 0.7548 0.6498
vn 0.0899 0.7548 -0.6498
vn 0.0938 0.7292 -0.6779
vn 0.1371 0.0000 -0.9906
vn 0.0899 -0.7548 -0.6498
vn -0.9906 0.0000 -0.1371
vn -0.0899 -0.7548 0.6498
vn 0.9906 0.0000 0.1371
vn -0.0938 -0.7292 0.6779
vn -0.1007 0.6788 0.7274
vn 0.1007 -0.6788 -0.7274
vn 0.0000 -1.0000 0.0000
vn 0.0000 1.0000 0.0000
usemtl Roof
s off
f 18//1 29//1 45//1 44//1
f 8//1 9//1 13//1 14//1
f 13//2 16//2 24//2 21//2
f 6//1 8//1 14//1 15//1
f 9//1 11//1 16//1 13//1
f 11//1 6//1 15//1 16//1
f 19//3 20//3 18//3 17//3
f 23//4 22//4 21//4 24//4
f 21//4 22//4 32//4 31//4
f 23//5 39//5 63//5 60//5
f 11//6 19//6 37//6 33//6
f 23//4 24//4 40//4 39//4
f 9//7 4//7 25//7 26//7
f 11//6 9//6 20//6 19//6
f 26//8 25//8 29//8 30//8
f 28//8 27//8 31//8 32//8
f 28//8 32//8 62//8 61//8
f 18//3 20//3 30//3 29//3
f 29//1 25//1 46//1 45//1
f 13//2 21//2 31//2 27//2
f 14//9 13//9 27//9 28//9
f 20//6 9//6 26//6 30//6
f 34//10 33//10 37//10 38//10
f 36//10 35//10 39//10 40//10
f 2//7 11//7 33//7 34//7
f 16//9 15//9 35//9 36//9
f 35//11 15//11 58//11 64//11
f 19//3 17//3 38//3 37//3
f 38//1 17//1 43//1 48//1
f 24//2 16//2 36//2 40//2
f 45//8 46//8 54//8 53//8
f 44//12 45//12 53//12 52//12
f 41//13 47//13 55//13 49//13
f 4//1 2//1 41//1 42//1
f 34//1 38//1 48//1 47//1
f 25//1 4//1 42//1 46//1
f 2//1 34//1 47//1 41//1
f 17//1 18//1 44//1 43//1
f 50//2 49//2 51//2 52//2
f 50//2 52//2 53//2 54//2
f 51//2 49//2 55//2 56//2
f 42//13 41//13 49//13 50//13
f 48//12 43//12 51//12 56//12
f 47//10 48//10 56//10 55//10
f 46//13 42//13 50//13 54//13
f 43//12 44//12 52//12 51//12
f 58//6 57//6 59//6 60//6
f 59//6 57//6 61//6 62//6
f 58//6 60//6 63//6 64//6
f 14//11 28//11 61//11 57//11
f 15//11 14//11 57//11 58//11
f 32//5 22//5 59//5 62//5
f 39//10 35//10 64//10 63//10
f 22//5 23//5 60//5 59//5
f 75//2 73//2 74//2 76//2
f 83//2 81//2 82//2 84//2
usemtl Building
f 2//2 4//2 3//2 1//2
f 9//8 8//8 7//8 10//8
f 8//6 6//6 5//6 7//6
f 11//10 2//10 1//10 12//10
f 12//14 10//14 7//14 5//14
f 1//14 3//14 10//14 12//14
f 6//10 11//10 12//10 5//10
f 4//8 9//8 10//8 3//8
usemtl door
f 66//2 68//2 67//2 65//2
f 68//8 72//8 71//8 67//8
f 72//6 70//6 69//6 71//6
f 70//10 66//10 65//10 69//10
f 65//14 67//14 71//14 69//14
f 70//15 72//15 68//15 66//15
usemtl Window
f 73//8 80//8 79//8 74//8
f 80//6 78//6 77//6 79//6
f 78//10 75//10 76//10 77//10
f 76//14 74//14 79//14 77//14
f 78//15 80//15 73//15 75//15
f 81//8 88//8 87//8 82//8
f 88//6 86//6 85//6 87//6
f 86//10 83//10 84//10 85//10
f 84//14 82//14 87//14 85//14
f 86//15 88//15 81//15 83//15
f 91//2 89//2 90//2 92//2
f 89//8 96//8 95//8 90//8
f 96//6 94//6 93//6 95//6
f 94//10 91//10 92//10 93//10
f 92//14 90//14 95//14 93//14
f 94//15 96//15 89//15 91//15
f 99//2 97//2 98//2 100//2
f 97//8 104//8 103//8 98//8
f 104//6 102//6 101//6 103//6
f 102//10 99//10 100//10 101//10
f 100//14 98//14 103//14 101//14
f 102//15 104//15 97//15 99//15
