# Blender v2.90.1 OBJ File: 'lowpoly几何多边形雪山农庄.blend'
# www.blender.org
mtllib tree.mtl
o Tree.001_Cube.039
v 0.400675 0.778499 1.933826
v 0.460572 1.197243 1.874123
v 0.400675 0.778499 1.808495
v 0.460572 1.197243 1.868199
v 0.526006 0.778499 1.933826
v 0.466495 1.197243 1.874123
v 0.526006 0.778499 1.808495
v 0.466495 1.197243 1.868199
v 0.409909 0.862247 1.924592
v 0.419143 0.945996 1.915357
v 0.428378 1.029745 1.906123
v 0.437612 1.113494 1.896889
v 0.437612 1.113494 1.845433
v 0.428378 1.029745 1.836199
v 0.419143 0.945996 1.826964
v 0.409909 0.862247 1.817730
v 0.489068 1.113494 1.845433
v 0.498302 1.029745 1.836199
v 0.507537 0.945996 1.826964
v 0.516771 0.862247 1.817730
v 0.489068 1.113494 1.896889
v 0.498302 1.029745 1.906123
v 0.507537 0.945996 1.915357
v 0.516771 0.862247 1.924592
v 0.422670 1.091240 1.911831
v 0.422670 1.091240 1.830491
v 0.504010 1.091240 1.830491
v 0.504010 1.091240 1.911831
v 0.409839 1.010426 1.924662
v 0.409839 1.010426 1.817660
v 0.516841 1.010426 1.817660
v 0.516841 1.010426 1.924662
v 0.390075 0.926603 1.944425
v 0.390075 0.926603 1.797896
v 0.536605 0.926603 1.797896
v 0.536605 0.926603 1.944425
v 0.379223 0.844444 1.955278
v 0.379223 0.844444 1.787044
v 0.547457 0.844444 1.787044
v 0.547457 0.844444 1.955278
v 0.373723 0.778499 1.781544
v 0.552957 0.778499 1.781544
v 0.552957 0.778499 1.960778
v 0.373723 0.778499 1.960778
v 0.463698 1.197243 1.868895
v 0.466819 0.778499 1.823226
v 0.463698 1.197243 1.873426
v 0.466819 0.778499 1.919095
v 0.464768 1.113494 1.890841
v 0.465281 1.029745 1.897904
v 0.465794 0.945996 1.904968
v 0.466306 0.862247 1.912032
v 0.464768 1.113494 1.851481
v 0.465281 1.029745 1.844417
v 0.465794 0.945996 1.837354
v 0.466306 0.862247 1.830290
v 0.465598 1.091240 1.840051
v 0.465598 1.091240 1.902271
v 0.466310 1.010426 1.830237
v 0.466310 1.010426 1.912085
v 0.467407 0.926603 1.815119
v 0.467407 0.926603 1.927203
v 0.468010 0.844444 1.806818
v 0.468010 0.844444 1.935504
v 0.468315 0.778499 1.939711
v 0.468315 0.778499 1.802611
v 0.461029 1.197243 1.871161
v 0.410267 0.778499 1.871161
v 0.466048 1.197243 1.871161
v 0.516469 0.778499 1.871161
v 0.485169 1.113494 1.871161
v 0.492994 1.029745 1.871161
v 0.500819 0.945996 1.871161
v 0.508644 0.862247 1.871161
v 0.441567 1.113494 1.871161
v 0.433742 1.029745 1.871161
v 0.425917 0.945996 1.871161
v 0.418092 0.862247 1.871161
v 0.428905 1.091240 1.871161
v 0.497831 1.091240 1.871161
v 0.418032 1.010426 1.871161
v 0.508704 1.010426 1.871161
v 0.401285 0.926603 1.871161
v 0.525451 0.926603 1.871161
v 0.392089 0.844444 1.871161
v 0.534647 0.844444 1.871161
v 0.539308 0.778499 1.871161
v 0.387428 0.778499 1.871161
v 0.464144 1.197243 1.871161
v 0.466316 0.778499 1.871161
v 0.463340 0.739393 1.843207
v 0.463340 0.908182 1.843207
v 0.479771 0.739393 1.848545
v 0.479771 0.908182 1.848545
v 0.489926 0.739393 1.862522
v 0.489926 0.908182 1.862522
v 0.489926 0.739393 1.879799
v 0.489926 0.908182 1.879799
v 0.479771 0.739393 1.893776
v 0.479771 0.908182 1.893776
v 0.463340 0.739393 1.899115
v 0.463340 0.908182 1.899115
v 0.446909 0.739393 1.893776
v 0.446909 0.908182 1.893776
v 0.436754 0.739393 1.879799
v 0.436754 0.908182 1.879799
v 0.436754 0.739393 1.862522
v 0.436754 0.908182 1.862522
v 0.446909 0.739393 1.848545
v 0.446909 0.908182 1.848545
vn 0.3090 0.0000 -0.9511
vn 0.8090 0.0000 -0.5878
vn 1.0000 0.0000 0.0000
vn 0.8090 0.0000 0.5878
vn 0.3090 0.0000 0.9511
vn -0.3090 0.0000 0.9511
vn -0.8090 0.0000 0.5878
vn -1.0000 0.0000 0.0000
vn 0.0000 1.0000 -0.0000
vn -0.8090 0.0000 -0.5878
vn -0.3090 0.0000 -0.9511
vn 0.0000 -1.0000 0.0000
vn -0.1937 -0.4539 -0.8697
vn -0.1757 -0.5886 -0.7891
vn -0.1436 -0.7509 -0.6446
vn -0.1320 -0.7944 -0.5929
vn -0.8616 -0.4905 0.1308
vn -0.7704 -0.6267 0.1171
vn -0.6158 -0.7823 0.0937
vn -0.5628 -0.8222 0.0857
vn 0.2169 -0.4396 0.8716
vn 0.1979 -0.5731 0.7952
vn 0.1631 -0.7376 0.6552
vn 0.1504 -0.7824 0.6043
vn 0.8616 -0.4900 -0.1322
vn 0.7706 -0.6263 -0.1181
vn 0.6160 -0.7821 -0.0943
vn 0.5629 -0.8220 -0.0861
vn -0.9469 0.2869 0.1452
vn -0.2338 0.2514 -0.9392
vn 0.9479 0.2842 -0.1440
vn 0.2099 0.2602 0.9425
vn -0.9642 0.2201 0.1478
vn -0.2370 0.1927 -0.9522
vn 0.9644 0.2203 -0.1465
vn 0.2130 0.2003 0.9563
vn -0.9439 0.2969 0.1445
vn -0.2331 0.2613 -0.9367
vn 0.9440 0.2971 -0.1436
vn 0.2092 0.2712 0.9395
vn -0.9389 0.3127 0.1437
vn -0.2322 0.2754 -0.9329
vn 0.9390 0.3129 -0.1429
vn 0.2083 0.2858 0.9354
vn 0.2066 0.3115 0.9275
vn 0.9296 0.3404 -0.1415
vn -0.2304 0.3004 -0.9256
vn -0.9295 0.3402 0.1422
vn 0.2066 0.3115 -0.9275
vn -0.2304 0.3004 0.9256
vn -0.2322 0.2754 0.9329
vn 0.2083 0.2858 -0.9354
vn -0.2331 0.2613 0.9367
vn 0.2092 0.2712 -0.9395
vn -0.2370 0.1927 0.9522
vn 0.2130 0.2003 -0.9563
vn -0.2338 0.2514 0.9392
vn 0.2099 0.2602 -0.9425
vn -0.1320 -0.7944 0.5929
vn -0.1436 -0.7509 0.6446
vn -0.1757 -0.5886 0.7891
vn -0.1937 -0.4539 0.8697
vn 0.1504 -0.7824 -0.6043
vn 0.1631 -0.7376 -0.6552
vn 0.1979 -0.5731 -0.7952
vn 0.2169 -0.4396 -0.8716
vn -0.9295 0.3402 -0.1422
vn 0.9296 0.3404 0.1415
vn 0.9390 0.3129 0.1429
vn -0.9389 0.3127 -0.1437
vn 0.9440 0.2971 0.1436
vn -0.9439 0.2969 -0.1445
vn 0.9644 0.2203 0.1465
vn -0.9642 0.2201 -0.1478
vn 0.9479 0.2842 0.1440
vn -0.9469 0.2869 -0.1452
vn 0.5629 -0.8220 0.0861
vn 0.6160 -0.7821 0.0943
vn 0.7706 -0.6263 0.1181
vn 0.8616 -0.4900 0.1322
vn -0.5628 -0.8222 -0.0857
vn -0.6158 -0.7823 -0.0937
vn -0.7704 -0.6267 -0.1171
vn -0.8616 -0.4905 -0.1308
usemtl Base
s off
f 91//1 92//1 94//1 93//1
f 93//2 94//2 96//2 95//2
f 95//3 96//3 98//3 97//3
f 97//4 98//4 100//4 99//4
f 99//5 100//5 102//5 101//5
f 101//6 102//6 104//6 103//6
f 103//7 104//7 106//7 105//7
f 105//8 106//8 108//8 107//8
f 94//9 92//9 110//9 108//9 106//9 104//9 102//9 100//9 98//9 96//9
f 107//10 108//10 110//10 109//10
f 109//11 110//11 92//11 91//11
f 91//12 93//12 95//12 97//12 99//12 101//12 103//12 105//12 107//12 109//12
usemtl Leaves
f 88//12 41//12 3//12 68//12
f 66//12 42//12 7//12 46//12
f 87//12 43//12 5//12 70//12
f 65//12 44//12 1//12 48//12
f 90//12 46//12 7//12 70//12
f 89//9 45//9 4//9 67//9
f 58//13 25//13 12//13 49//13
f 60//14 29//14 11//14 50//14
f 62//15 33//15 10//15 51//15
f 64//16 37//16 9//16 52//16
f 80//17 28//17 21//17 71//17
f 82//18 32//18 22//18 72//18
f 84//19 36//19 23//19 73//19
f 86//20 40//20 24//20 74//20
f 57//21 27//21 17//21 53//21
f 59//22 31//22 18//22 54//22
f 61//23 35//23 19//23 55//23
f 63//24 39//24 20//24 56//24
f 79//25 26//25 13//25 75//25
f 81//26 30//26 14//26 76//26
f 83//27 34//27 15//27 77//27
f 85//28 38//28 16//28 78//28
f 67//29 4//29 26//29 79//29
f 45//30 8//30 27//30 57//30
f 69//31 6//31 28//31 80//31
f 47//32 2//32 25//32 58//32
f 75//33 13//33 30//33 81//33
f 53//34 17//34 31//34 59//34
f 71//35 21//35 32//35 82//35
f 49//36 12//36 29//36 60//36
f 76//37 14//37 34//37 83//37
f 54//38 18//38 35//38 61//38
f 72//39 22//39 36//39 84//39
f 50//40 11//40 33//40 62//40
f 77//41 15//41 38//41 85//41
f 55//42 19//42 39//42 63//42
f 73//43 23//43 40//43 86//43
f 51//44 10//44 37//44 64//44
f 52//45 9//45 44//45 65//45
f 74//46 24//46 43//46 87//46
f 56//47 20//47 42//47 66//47
f 78//48 16//48 41//48 88//48
f 16//49 56//49 66//49 41//49
f 24//50 52//50 65//50 43//50
f 23//51 51//51 64//51 40//51
f 15//52 55//52 63//52 38//52
f 22//53 50//53 62//53 36//53
f 14//54 54//54 61//54 34//54
f 21//55 49//55 60//55 32//55
f 13//56 53//56 59//56 30//56
f 6//57 47//57 58//57 28//57
f 4//58 45//58 57//58 26//58
f 38//59 63//59 56//59 16//59
f 34//60 61//60 55//60 15//60
f 30//61 59//61 54//61 14//61
f 26//62 57//62 53//62 13//62
f 40//63 64//63 52//63 24//63
f 36//64 62//64 51//64 23//64
f 32//65 60//65 50//65 22//65
f 28//66 58//66 49//66 21//66
f 69//9 8//9 45//9 89//9
f 68//12 3//12 46//12 90//12
f 43//12 65//12 48//12 5//12
f 41//12 66//12 46//12 3//12
f 1//12 68//12 90//12 48//12
f 6//9 69//9 89//9 47//9
f 9//67 78//67 88//67 44//67
f 20//68 74//68 87//68 42//68
f 19//69 73//69 86//69 39//69
f 10//70 77//70 85//70 37//70
f 18//71 72//71 84//71 35//71
f 11//72 76//72 83//72 33//72
f 17//73 71//73 82//73 31//73
f 12//74 75//74 81//74 29//74
f 8//75 69//75 80//75 27//75
f 2//76 67//76 79//76 25//76
f 37//77 85//77 78//77 9//77
f 33//78 83//78 77//78 10//78
f 29//79 81//79 76//79 11//79
f 25//80 79//80 75//80 12//80
f 39//81 86//81 74//81 20//81
f 35//82 84//82 73//82 19//82
f 31//83 82//83 72//83 18//83
f 27//84 80//84 71//84 17//84
f 47//9 89//9 67//9 2//9
f 48//12 90//12 70//12 5//12
f 42//12 87//12 70//12 7//12
f 44//12 88//12 68//12 1//12
